<mxfile host="app.diagrams.net" agent="Mozilla/5.0 (iPhone; CPU iPhone OS 16_7_11 like Mac OS X) AppleWebKit/605.1.15 (KHTML, like Gecko) CriOS/137.0.7151.107 Mobile/15E148 Safari/604.1" version="28.1.0">
  <diagram name="Page-1" id="dIiSFUBCcx_5MQdop0qg">
    <mxGraphModel dx="212" dy="273" grid="1" gridSize="10" guides="1" tooltips="1" connect="1" arrows="1" fold="1" page="1" pageScale="1" pageWidth="850" pageHeight="1100" math="0" shadow="0">
      <root>
        <mxCell id="0" />
        <mxCell id="1" parent="0" />
        <mxCell id="cNnX3JlufAEabrtbXCUO-1" value="&lt;ul&gt;&lt;li&gt;Bellen/mailen waskom&lt;/li&gt;&lt;li&gt;Overboeken hd 1tb&lt;/li&gt;&lt;li&gt;Egaliseerpastabij uitgaven&lt;/li&gt;&lt;/ul&gt;" style="text;strokeColor=none;align=left;fillColor=none;html=1;verticalAlign=top;whiteSpace=wrap;rounded=0;fontSize=8;fontFamily=Verdana;" parent="1" vertex="1">
          <mxGeometry x="160" y="330" width="230" height="360" as="geometry" />
        </mxCell>
      </root>
    </mxGraphModel>
  </diagram>
</mxfile>
